<?xml version="1.0" encoding="utf-8"?>
<!-- Generator: Adobe Illustrator 19.1.0, SVG Export Plug-In . SVG Version: 6.00 Build 0)  -->
<svg version="1.1" id="Layer_1" xmlns="http://www.w3.org/2000/svg" xmlns:xlink="http://www.w3.org/1999/xlink" x="0px" y="0px"
	 viewBox="0 0 45.8 54.6" style="enable-background:new 0 0 45.8 54.6;" xml:space="preserve">
<g>
	<path style="opacity:0.11;fill-rule:evenodd;clip-rule:evenodd;fill:#020202;" d="M39.5,32.7c0,12.1-8.9,21.9-19.8,21.9
		S0,44.8,0,32.7c0-6.5,2.4-15,6.5-17.7c8.3-5.7,8.1,0,13.2,0c4.8,0,7.2-5.8,12.3-1.9C36.3,16.1,39.5,25.9,39.5,32.7z"/>
	<path style="fill:none;stroke:#424242;stroke-width:0.7948;stroke-miterlimit:10;" d="M36.5,25.9c0,0,4.7,5.1,9,0.4"/>
	<path style="fill:none;stroke:#424242;stroke-width:0.7948;stroke-miterlimit:10;" d="M9.6,25.9c0,0-4.7,5.1-9,0.4"/>
	<ellipse style="fill-rule:evenodd;clip-rule:evenodd;fill:#424242;" cx="23.2" cy="6.9" rx="5.8" ry="3.9"/>
	<path style="fill-rule:evenodd;clip-rule:evenodd;fill:#424242;" d="M32.9,9.4C29.2,2.8,29.2,10,24,10s-7.3-6.3-9.7-0.7
		c-1.8,4,4.2,7.9,9.3,7.9S35,13.2,32.9,9.4z"/>
	<path style="fill:none;stroke:#424242;stroke-width:0.7948;stroke-miterlimit:10;" d="M36.3,17.6c0,0,6.6-1.9,4.4-7.8"/>
	<path style="fill:none;stroke:#424242;stroke-width:0.7948;stroke-miterlimit:10;" d="M42.7,48.9c0,0,2.7-6.3-3.3-8.4"/>
	<path style="fill:none;stroke:#424242;stroke-width:0.826;stroke-miterlimit:10;" d="M3.1,48.8c0,0-2.8-6.6,3.4-8.7"/>
	<path style="fill:none;stroke:#424242;stroke-width:0.7948;stroke-miterlimit:10;" d="M9.9,18.4c0,0-6.6-1.9-4.4-7.8"/>
	<path style="fill:none;stroke:#424242;stroke-width:0.7948;stroke-miterlimit:10;" d="M23.7,8c0,0-6.6-1.9-4.4-7.8"/>
	<path style="fill:none;stroke:#424242;stroke-width:0.7948;stroke-miterlimit:10;" d="M22.3,8c0,0,6.6-1.9,4.4-7.8"/>
	<path style="fill-rule:evenodd;clip-rule:evenodd;fill:#DB260E;" d="M43,31.1C43,43.1,34.2,53,23.2,53S3.5,43.1,3.5,31.1
		c0-6.5,2.4-15,6.5-17.7c8.3-5.7,8.1,0,13.2,0c4.8,0,7.2-5.8,12.3-1.9C39.7,14.5,43,24.3,43,31.1z"/>
	<line style="fill:none;stroke:#871E16;stroke-miterlimit:10;" x1="23.2" y1="13.3" x2="23.2" y2="53"/>
	<circle style="fill:#424242;" cx="15.3" cy="19.1" r="3.5"/>
	<circle style="fill:#424242;" cx="31.7" cy="19.1" r="3.5"/>
	<circle style="fill:#424242;" cx="7.7" cy="28.3" r="3.5"/>
	<circle style="fill:#424242;" cx="38.4" cy="28.3" r="3.5"/>
	<circle style="fill:#424242;" cx="27.1" cy="28.3" r="3.5"/>
	<circle style="fill:#424242;" cx="19.2" cy="28.3" r="3.5"/>
	<circle style="fill:#424242;" cx="15.1" cy="39" r="5.3"/>
	<circle style="fill:#424242;" cx="30" cy="39" r="5.3"/>
</g>
</svg>
