<?xml version="1.0" encoding="utf-8"?>
<!-- Generator: Adobe Illustrator 19.1.0, SVG Export Plug-In . SVG Version: 6.00 Build 0)  -->
<svg version="1.1" id="Layer_1" xmlns="http://www.w3.org/2000/svg" xmlns:xlink="http://www.w3.org/1999/xlink" x="0px" y="0px"
	 viewBox="-1544.1 800.9 73.6 87" style="enable-background:new -1544.1 800.9 73.6 87;" xml:space="preserve">
<style type="text/css">
	.st0{opacity:0.11;fill:#020202;enable-background:new    ;}
	.st1{fill:none;stroke:#424242;stroke-width:1.2228;stroke-miterlimit:10;}
	.st2{fill:#424242;}
	.st3{fill:none;stroke:#424242;stroke-width:1.2708;stroke-miterlimit:10;}
	.st4{fill:#DB260E;}
	.st5{fill:none;stroke:#871E16;stroke-width:1.5385;stroke-miterlimit:10;}
</style>
<g>
	<g>
		<path class="st0" d="M-1483.3,850.9c0,18.6-13.7,33.7-30.5,33.7s-30.3-15.1-30.3-33.7c0-10,3.7-23.1,10-27.2
			c12.8-8.8,12.5,0,20.3,0c7.4,0,11.1-8.9,18.9-2.9C-1488.2,825.4-1483.3,840.4-1483.3,850.9z"/>
		<path class="st1" d="M-1474.1,846.5c-6.6-7.2-13.8,0.6-13.8,0.6"/>
		<path class="st1" d="M-1529.3,840.4c0,0-7.2,7.8-13.8,0.6"/>
		<ellipse class="st2" cx="-1508.4" cy="811.2" rx="8.9" ry="6"/>
		<path class="st2" d="M-1493.4,815.1c-5.7-10.2-5.7,0.9-13.7,0.9s-11.2-9.7-14.9-1.1c-2.8,6.2,6.5,12.2,14.3,12.2
			C-1499.9,827.1-1490.2,820.9-1493.4,815.1z"/>
		<path class="st1" d="M-1489.5,822.3c0,0,9.1-5.4,3.5-13.4"/>
		<path class="st1" d="M-1476.2,869.9c0,0,2.3-10.3-7.4-11.7"/>
		<path class="st3" d="M-1536,881.3c0,0-6.1-9.2,2.6-14.1"/>
		<path class="st1" d="M-1528.4,834c0,0-10.6-0.2-9.7-9.8"/>
		<path class="st1" d="M-1507.6,812.9c0,0-10.2-2.9-6.8-12"/>
		<path class="st1" d="M-1509.7,812.9c0,0,10.2-2.9,6.8-12"/>
		<path class="st4" d="M-1477.9,848.4c0,18.5-13.5,33.7-30.5,33.7c-16.9,0-30.3-15.2-30.3-33.7c0-10,3.7-23.1,10-27.2
			c12.8-8.8,12.5,0,20.3,0c7.4,0,11.1-8.9,18.9-2.9C-1483,822.9-1477.9,838-1477.9,848.4z"/>
		<line class="st5" x1="-1508.4" y1="821.1" x2="-1508.4" y2="882.1"/>
		<circle class="st2" cx="-1520.5" cy="830" r="5.4"/>
		<circle class="st2" cx="-1495.3" cy="830" r="5.4"/>
		<circle class="st2" cx="-1532.2" cy="844.1" r="5.4"/>
		<circle class="st2" cx="-1485" cy="844.1" r="5.4"/>
		<circle class="st2" cx="-1502.4" cy="844.1" r="5.4"/>
		<circle class="st2" cx="-1514.5" cy="844.1" r="5.4"/>
		<circle class="st2" cx="-1520.8" cy="860.6" r="8.2"/>
		<circle class="st2" cx="-1497.9" cy="860.6" r="8.2"/>
	</g>
</g>
<g>
	<path class="st0" d="M-1397,850.9c0,18.6-13.7,33.7-30.5,33.7s-30.3-15.1-30.3-33.7c0-10,3.7-23.1,10-27.2c12.8-8.8,12.5,0,20.3,0
		c7.4,0,11.1-8.9,18.9-2.9C-1401.9,825.4-1397,840.4-1397,850.9z"/>
	<path class="st1" d="M-1401.6,840.4c0,0,5.6,1.8,13.8,0.6"/>
	<path class="st1" d="M-1443,840.4c0,0-5.7,1-13.8,0.6"/>
	<ellipse class="st2" cx="-1422.1" cy="811.2" rx="8.9" ry="6"/>
	<path class="st2" d="M-1407.1,815.1c-5.7-10.2-5.7,0.9-13.7,0.9s-11.2-9.7-14.9-1.1c-2.8,6.2,6.5,12.2,14.3,12.2
		C-1413.6,827.1-1403.9,820.9-1407.1,815.1z"/>
	<path class="st1" d="M-1401.9,827.7c0,0,10.2-2.9,6.8-12"/>
	<path class="st1" d="M-1392.1,875.8c0,0,4.2-9.7-5.1-12.9"/>
	<path class="st3" d="M-1453,875.7c0,0-4.3-10.2,5.2-13.4"/>
	<path class="st1" d="M-1442.5,828.9c0,0-10.2-2.9-6.8-12"/>
	<path class="st1" d="M-1421.3,812.9c0,0-10.2-2.9-6.8-12"/>
	<path class="st1" d="M-1423.4,812.9c0,0,10.2-2.9,6.8-12"/>
	<path class="st4" d="M-1391.6,848.4c0,18.5-13.5,33.7-30.5,33.7c-16.9,0-30.3-15.2-30.3-33.7c0-10,3.7-23.1,10-27.2
		c12.8-8.8,12.5,0,20.3,0c7.4,0,11.1-8.9,18.9-2.9C-1396.7,822.9-1391.6,838-1391.6,848.4z"/>
	<line class="st5" x1="-1422.1" y1="821.1" x2="-1422.1" y2="882.1"/>
	<circle class="st2" cx="-1434.2" cy="830" r="5.4"/>
	<circle class="st2" cx="-1409" cy="830" r="5.4"/>
	<circle class="st2" cx="-1445.9" cy="844.1" r="5.4"/>
	<circle class="st2" cx="-1398.7" cy="844.1" r="5.4"/>
	<circle class="st2" cx="-1416.1" cy="844.1" r="5.4"/>
	<circle class="st2" cx="-1428.2" cy="844.1" r="5.4"/>
	<circle class="st2" cx="-1434.5" cy="860.6" r="8.2"/>
	<circle class="st2" cx="-1411.6" cy="860.6" r="8.2"/>
</g>
<g>
	<g>
		<path class="st0" d="M-1219.9,850.9c0,18.6-13.7,33.7-30.5,33.7c-16.8,0-30.3-15.1-30.3-33.7c0-10,3.7-23.1,10-27.2
			c12.8-8.8,12.5,0,20.3,0c7.4,0,11.1-8.9,18.9-2.9C-1224.8,825.4-1219.9,840.4-1219.9,850.9z"/>
		<path class="st1" d="M-1224.5,840.4c0,0,5.6,1.8,13.8,0.6"/>
		<path class="st1" d="M-1265.9,840.4c0,0-5.7,1-13.8,0.6"/>
		<ellipse class="st2" cx="-1245" cy="811.2" rx="8.9" ry="6"/>
		<path class="st2" d="M-1230,815.1c-5.7-10.2-5.7,0.9-13.7,0.9s-11.2-9.7-14.9-1.1c-2.8,6.2,6.5,12.2,14.3,12.2
			C-1236.5,827.1-1226.8,820.9-1230,815.1z"/>
		<path class="st1" d="M-1224.8,827.7c0,0,10.2-2.9,6.8-12"/>
		<path class="st1" d="M-1215,875.8c0,0,4.2-9.7-5.1-12.9"/>
		<path class="st3" d="M-1275.9,875.7c0,0-4.3-10.2,5.2-13.4"/>
		<path class="st1" d="M-1265.4,828.9c0,0-10.2-2.9-6.8-12"/>
		<path class="st1" d="M-1244.2,812.9c0,0-10.2-2.9-6.8-12"/>
		<path class="st1" d="M-1246.3,812.9c0,0,10.2-2.9,6.8-12"/>
		<path class="st4" d="M-1214.5,848.4c0,18.5-13.5,33.7-30.5,33.7c-16.9,0-30.3-15.2-30.3-33.7c0-10,3.7-23.1,10-27.2
			c12.8-8.8,12.5,0,20.3,0c7.4,0,11.1-8.9,18.9-2.9C-1219.6,822.9-1214.5,838-1214.5,848.4z"/>
		<line class="st5" x1="-1245" y1="821.1" x2="-1245" y2="882.1"/>
		<circle class="st2" cx="-1257.1" cy="830" r="5.4"/>
		<circle class="st2" cx="-1231.9" cy="830" r="5.4"/>
		<circle class="st2" cx="-1268.8" cy="844.1" r="5.4"/>
		<circle class="st2" cx="-1221.6" cy="844.1" r="5.4"/>
		<circle class="st2" cx="-1239" cy="844.1" r="5.4"/>
		<circle class="st2" cx="-1251.1" cy="844.1" r="5.4"/>
		<circle class="st2" cx="-1257.4" cy="860.6" r="8.2"/>
		<circle class="st2" cx="-1234.5" cy="860.6" r="8.2"/>
	</g>
</g>
<g>
	<g>
		<g>
			<path class="st1" d="M-1351.6,847.2c0,0-7.2-7.8-13.8-0.6"/>
			<path class="st1" d="M-1296.4,841.1c-6.6,7.2-13.8-0.6-13.8-0.6"/>
			<path class="st1" d="M-1353.5,809.1c-5.6,7.9,3.5,13.4,3.5,13.4"/>
			<path class="st1" d="M-1355.9,858.3c-9.7,1.4-7.4,11.7-7.4,11.7"/>
			<path class="st3" d="M-1306.1,867.2c8.7,4.9,2.6,14.1,2.6,14.1"/>
			<path class="st1" d="M-1301.4,824.3c0.9,9.7-9.7,9.8-9.7,9.8"/>
		</g>
		<path class="st0" d="M-1305.9,850.9c0,18.6-13.7,33.7-30.5,33.7c-16.8,0-30.3-15.1-30.3-33.7c0-10,3.7-23.1,10-27.2
			c12.8-8.8,12.5,0,20.3,0c7.4,0,11.1-8.9,18.9-2.9C-1310.8,825.4-1305.9,840.4-1305.9,850.9z"/>
		<ellipse class="st2" cx="-1331" cy="811.2" rx="8.9" ry="6"/>
		<path class="st2" d="M-1316,815.1c-5.7-10.2-5.7,0.9-13.7,0.9s-11.2-9.7-14.9-1.1c-2.8,6.2,6.5,12.2,14.3,12.2
			C-1322.5,827.1-1312.8,820.9-1316,815.1z"/>
		<path class="st1" d="M-1330.2,812.9c0,0-10.2-2.9-6.8-12"/>
		<path class="st1" d="M-1332.3,812.9c0,0,10.2-2.9,6.8-12"/>
		<path class="st4" d="M-1300.5,848.4c0,18.5-13.5,33.7-30.5,33.7c-16.9,0-30.3-15.2-30.3-33.7c0-10,3.7-23.1,10-27.2
			c12.8-8.8,12.5,0,20.3,0c7.4,0,11.1-8.9,18.9-2.9C-1305.6,822.9-1300.5,838-1300.5,848.4z"/>
		<line class="st5" x1="-1331" y1="821.1" x2="-1331" y2="882.1"/>
		<circle class="st2" cx="-1343.1" cy="830" r="5.4"/>
		<circle class="st2" cx="-1317.9" cy="830" r="5.4"/>
		<circle class="st2" cx="-1354.8" cy="844.1" r="5.4"/>
		<circle class="st2" cx="-1307.6" cy="844.1" r="5.4"/>
		<circle class="st2" cx="-1325" cy="844.1" r="5.4"/>
		<circle class="st2" cx="-1337.1" cy="844.1" r="5.4"/>
		<circle class="st2" cx="-1343.4" cy="860.6" r="8.2"/>
		<circle class="st2" cx="-1320.5" cy="860.6" r="8.2"/>
	</g>
</g>
</svg>
