<?xml version="1.0" encoding="utf-8"?>
<!-- Generator: Adobe Illustrator 19.1.0, SVG Export Plug-In . SVG Version: 6.00 Build 0)  -->
<svg version="1.1" id="Layer_1" xmlns="http://www.w3.org/2000/svg" xmlns:xlink="http://www.w3.org/1999/xlink" x="0px" y="0px"
	 viewBox="-395.8 265.3 116 130" style="enable-background:new -395.8 265.3 116 130;" xml:space="preserve">
<style type="text/css">
	.st0{opacity:9.000000e-02;fill:#020202;enable-background:new    ;}
	.st1{fill:#424242;}
	.st2{fill:none;stroke:#424242;stroke-width:1.2228;stroke-miterlimit:10;}
	.st3{fill:#5E1812;}
	.st4{opacity:0.74;fill:#666666;}
	.st5{fill:#DB260E;}
</style>
<path class="st0" d="M-335,361.5c0,18.6-13.7,33.7-30.5,33.7s-30.3-15.1-30.3-33.7c0-10,3.7-23.1,10-27.2c12.8-8.8,12.5,0,20.3,0
	c7.4,0,11.1-8.9,18.9-2.9C-339.9,336-335,351-335,361.5z"/>
<ellipse class="st1" cx="-324.3" cy="275.6" rx="8.9" ry="6"/>
<path class="st1" d="M-309.3,279.5c-5.7-10.2-5.7,0.9-13.7,0.9s-11.2-9.7-14.9-1.1c-2.8,6.2,6.5,12.2,14.3,12.2
	C-315.8,291.5-306.1,285.3-309.3,279.5z"/>
<path class="st2" d="M-323.5,277.3c0,0-10.2-2.9-6.8-12"/>
<path class="st2" d="M-325.6,277.3c0,0,10.2-2.9,6.8-12"/>
<path class="st3" d="M-308,282.7c-6.7-6-9.9,2.9-16.3,2.9c-6.7,0-6.5-8.8-17.5,0c-5.4,4.1-8.6,17.2-8.6,27.2
	c0,18.5,11.5,33.7,26.1,33.7c14.7,0,26.3-15.2,26.3-33.7C-298,302.4-302.4,287.3-308,282.7z"/>
<path class="st4" d="M-324.3,285.6c-0.3,20.8,8.8,61.4,20.7,66.7c11.9,5.3,5.8-36.6,1.7-46.7C-306.1,295.5-306.7,283.3-324.3,285.6z
	"/>
<path class="st5" d="M-309.2,273.9c-9.7-1.4-8.6,8.1-15.1,11.7l29.6,53.2c14.9-8.3,19.2-28.1,10.2-44.3
	C-289.5,285.4-301.3,274.7-309.2,273.9z"/>
<circle class="st1" cx="-308.6" cy="286.9" r="5.4"/>
<circle class="st1" cx="-292.7" cy="294.2" r="5.4"/>
<path class="st4" d="M-324.3,285.6c0.3,20.8-8.8,61.4-20.7,66.7c-11.9,5.3-5.8-36.6-1.7-46.7C-342.5,295.5-341.8,283.3-324.3,285.6z
	"/>
<circle class="st1" cx="-307.9" cy="302.7" r="5.4"/>
<g>
	<path class="st5" d="M-342.2,276.1c-7.5,0.7-16.9,10.5-21.6,19.3c-8.7,16.3-4,36,10.9,44l28.6-53.8
		C-331.2,281.9-326.8,274.3-342.2,276.1z"/>
	<circle class="st1" cx="-339.1" cy="287.7" r="5.4"/>
	<circle class="st1" cx="-356.1" cy="294.6" r="5.4"/>
	<circle class="st1" cx="-340.4" cy="303" r="5.4"/>
	<circle class="st1" cx="-353.7" cy="314.6" r="8.2"/>
</g>
<circle class="st1" cx="-296" cy="314.9" r="8.2"/>
</svg>
