<?xml version="1.0" encoding="utf-8"?>
<!-- Generator: Adobe Illustrator 19.2.1, SVG Export Plug-In . SVG Version: 6.00 Build 0)  -->
<svg version="1.1" id="Layer_1" xmlns="http://www.w3.org/2000/svg" xmlns:xlink="http://www.w3.org/1999/xlink" x="0px" y="0px"
	 viewBox="0 0 89.8 85.7" style="enable-background:new 0 0 89.8 85.7;" xml:space="preserve">
<style type="text/css">
	.st0{fill:#F7D64D;}
</style>
<path class="st0" d="M46,72.7l24.2,12.7c1.7,0.9,3.7-0.5,3.3-2.4L68.9,56c-0.1-0.7,0.1-1.5,0.7-2l19.6-19.1c1.4-1.3,0.6-3.7-1.3-3.9
	l-27-3.9c-0.7-0.1-1.4-0.6-1.7-1.3L47,1.3c-0.8-1.7-3.3-1.7-4.1,0L30.8,25.8c-0.3,0.7-1,1.2-1.7,1.3L2,31c-1.9,0.3-2.6,2.6-1.3,3.9
	L20.3,54c0.5,0.5,0.8,1.3,0.7,2L16.3,83c-0.3,1.9,1.7,3.3,3.3,2.4l24.2-12.7C44.5,72.3,45.3,72.3,46,72.7z"/>
</svg>
